<mxfile host="app.diagrams.net" modified="2024-06-21T17:41:52.217Z" agent="Mozilla/5.0 (X11; Linux x86_64; rv:124.0) Gecko/20100101 Firefox/124.0" version="24.6.1" etag="4u6HHK95C1JXLbGBY3QM" type="github">
  <diagram name="Page-1" id="0Qip9Mh7Amnw0wFKIFwG">
    <mxGraphModel>
      <root>
        <mxCell id="0" />
        <mxCell id="1" parent="0" />
      </root>
    </mxGraphModel>
  </diagram>
</mxfile>
